<svg width="24" height="24" viewBox="0 0 24 24" fill="none" xmlns="http://www.w3.org/2000/svg">
<path d="M5 12.76C5 11.402 5 10.723 5.274 10.126C5.549 9.52895 6.064 9.08795 7.095 8.20395L8.095 7.34695C9.96 5.74995 10.89 4.94995 12 4.94995C13.11 4.94995 14.041 5.74895 15.905 7.34595L16.905 8.20295C17.935 9.08695 18.451 9.52795 18.725 10.125C19 10.722 19 11.401 19 12.759V17C19 18.886 19 19.828 18.414 20.414C17.828 21 16.886 21 15 21H9C7.114 21 6.172 21 5.586 20.414C5 19.828 5 18.886 5 17V12.76Z" stroke="#757575"/>
<path d="M14.5 21V16C14.5 15.7348 14.3946 15.4804 14.2071 15.2929C14.0196 15.1054 13.7652 15 13.5 15H10.5C10.2348 15 9.98043 15.1054 9.79289 15.2929C9.60536 15.4804 9.5 15.7348 9.5 16V21" stroke="#757575" stroke-linecap="round" stroke-linejoin="round"/>
</svg>
