<svg width="22" height="22" viewBox="0 0 22 22" fill="none" xmlns="http://www.w3.org/2000/svg">
<path d="M11.5 9C11.5 9 11.5 6.5621 11.5 5M11.5 9C10.3359 9 9.35758 9.79569 9.07932 10.8729M11.5 9C12.7512 9 13.7878 9.91917 13.9712 11.1191M11.5 5C12.6046 5 13.5 4.10457 13.5 3C13.5 1.89543 12.6046 1 11.5 1C10.3954 1 9.50001 1.89543 9.50001 3C9.50001 4.10457 10.3954 5 11.5 5ZM7.50001 16.5C8.47623 15.3284 9.99977 13.5 9.99977 13.5M7.50001 16.5C6.61049 15.7376 5.38954 15.7376 4.50001 16.5C3.46224 17.3895 3.46224 19.1105 4.50001 20C5.38954 20.7624 6.61049 20.7624 7.50001 20C8.53779 19.1105 8.53779 17.3895 7.50001 16.5ZM9.99977 13.5C9.39269 13.0439 9.00001 12.3178 9.00001 11.5C9.00001 11.2834 9.02755 11.0733 9.07932 10.8729M9.99977 13.5C10.4176 13.814 10.9371 14 11.5 14C12.0629 14 12.5824 13.814 13.0003 13.5M15.5 16.5C14.5238 15.3284 13.0003 13.5 13.0003 13.5M15.5 16.5C16.3895 15.7376 17.6105 15.7376 18.5 16.5C19.5378 17.3895 19.5378 19.1105 18.5 20C17.6105 20.7624 16.3895 20.7624 15.5 20C14.4622 19.1105 14.4622 17.3895 15.5 16.5ZM13.0003 13.5C13.6073 13.0439 14 12.3178 14 11.5C14 11.3705 13.9902 11.2433 13.9712 11.1191M9.07932 10.8729L4.89214 9.6496M4.89214 9.6496C4.96205 9.44592 5 9.22739 5 9C5 7.89543 4.10457 7 3 7C1.89543 7 1 7.89543 1 9C1 10.1046 1.89543 11 3 11C3.87718 11 4.62246 10.4353 4.89214 9.6496ZM13.9712 11.1191L17.563 9.5M17.563 9.5C17.785 10.3626 18.5681 11 19.5 11C20.6046 11 21.5 10.1046 21.5 9C21.5 7.89543 20.6046 7 19.5 7C18.3954 7 17.5 7.89543 17.5 9C17.5 9.17265 17.5219 9.34019 17.563 9.5Z" stroke="currentColor"/>
</svg>
