<svg width="24" height="24" viewBox="0 0 24 24" fill="none" xmlns="http://www.w3.org/2000/svg">
<path d="M9 9H15M9 13H12M19.326 5.778C20 6.787 20 8.19 20 11C20 13.81 20 15.213 19.326 16.222C19.0341 16.6589 18.6589 17.0341 18.222 17.326C17.341 17.915 16.158 17.989 14 17.999L12.894 20.211C12.8109 20.3769 12.6832 20.5164 12.5253 20.6138C12.3674 20.7113 12.1855 20.7629 12 20.7629C11.8145 20.7629 11.6326 20.7113 11.4747 20.6138C11.3168 20.5164 11.1891 20.3769 11.106 20.211L10 18C7.842 17.99 6.66 17.915 5.778 17.326C5.34106 17.0341 4.96591 16.6589 4.674 16.222C4 15.213 4 13.81 4 11C4 8.19 4 6.787 4.674 5.778C4.96591 5.34106 5.34106 4.96591 5.778 4.674C6.787 4 8.19 4 11 4H13C15.809 4 17.213 4 18.222 4.674C18.6589 4.96591 19.0341 5.34106 19.326 5.778Z" stroke="#757575" stroke-linecap="round" stroke-linejoin="round"/>
</svg>
