<svg width="24" height="24" viewBox="0 0 24 24" fill="none" xmlns="http://www.w3.org/2000/svg">
<path d="M6.448 8.97001C6.59947 7.60343 7.24963 6.34072 8.27402 5.4236C9.29841 4.50649 10.6251 3.99939 12 3.99939C13.375 3.99939 14.7016 4.50649 15.726 5.4236C16.7504 6.34072 17.4005 7.60343 17.552 8.97001L17.804 11.236L17.81 11.293C17.9391 12.417 18.3052 13.5009 18.884 14.473L18.914 14.523L19.491 15.486C20.016 16.36 20.278 16.797 20.221 17.156C20.1834 17.3943 20.0608 17.6109 19.876 17.766C19.597 18 19.087 18 18.068 18H5.932C4.912 18 4.402 18 4.124 17.767C3.93861 17.6119 3.81569 17.3948 3.778 17.156C3.722 16.797 3.984 16.36 4.508 15.486L5.087 14.522L5.117 14.472C5.69536 13.5001 6.06107 12.4166 6.19 11.293L6.196 11.236L6.448 8.97001Z" stroke="#757575"/>
<path d="M9.10199 18.406C9.27299 19.15 9.64999 19.808 10.174 20.276C10.698 20.746 11.34 21 12 21C12.66 21 13.302 20.746 13.826 20.277C14.35 19.807 14.726 19.15 14.898 18.406" stroke="#757575" stroke-linecap="round"/>
</svg>
