<svg width="24" height="24" viewBox="0 0 24 24" fill="none" xmlns="http://www.w3.org/2000/svg">
<path d="M12 20L4.68003 10.85C4.34703 10.434 4.18003 10.226 4.13603 9.976C4.09203 9.726 4.17603 9.473 4.34403 8.968L5.08803 6.735C5.52803 5.415 5.74803 4.755 6.27203 4.378C6.79603 4.001 7.49203 4 8.88303 4H15.117C16.508 4 17.204 4 17.727 4.378C18.252 4.755 18.472 5.415 18.912 6.735L19.656 8.968C19.824 9.473 19.908 9.725 19.864 9.976C19.819 10.226 19.653 10.434 19.32 10.85L12 20ZM12 20L15.5 9M12 20L8.50003 9M15.5 9L19.5 10M15.5 9L14 5M15.5 9H8.50003M8.50003 9L10 5M8.50003 9L4.50003 10" stroke="#757575" stroke-linecap="round"/>
</svg>
