<svg width="291" height="180" viewBox="0 0 291 180" fill="none" xmlns="http://www.w3.org/2000/svg">
<mask id="mask0_8_404" style="mask-type:luminance" maskUnits="userSpaceOnUse" x="0" y="0" width="291" height="180">
<path d="M200.624 0C250.104 0 290.216 40.1117 290.216 89.592C290.216 139.072 250.104 179.184 200.624 179.184C187.653 179.184 175.327 176.427 164.198 171.467C152.432 166.224 138.482 166.224 126.716 171.467C115.587 176.427 103.261 179.184 90.29 179.184C40.81 179.184 0.698342 139.072 0.698242 89.592C0.698242 40.1117 40.81 0 90.29 0C103.26 0 115.587 2.7564 126.716 7.7152C138.482 12.9579 152.432 12.9579 164.198 7.7152C175.327 2.7564 187.654 0.0001 200.624 0Z" fill="white"/>
</mask>
<g mask="url(#mask0_8_404)">
<path d="M200.624 -1.90735e-05V49.0377C223.021 49.0377 241.178 67.194 241.178 89.592H290.216H339.254C339.254 13.0289 277.187 -49.0377 200.624 -49.0377V-1.90735e-05ZM290.216 89.592H241.178C241.178 111.989 223.021 130.146 200.624 130.146V179.184V228.221C277.187 228.221 339.253 166.155 339.254 89.592H290.216ZM200.624 179.184V130.146C194.665 130.146 189.128 128.89 184.158 126.676L164.198 171.467L144.238 216.259C161.526 223.963 180.642 228.221 200.624 228.221V179.184ZM126.716 171.467L106.756 126.676C101.786 128.89 96.25 130.146 90.29 130.146V179.184V228.221C110.272 228.221 129.388 223.963 146.676 216.259L126.716 171.467ZM90.29 179.184V130.146C67.893 130.146 49.736 111.989 49.736 89.592H0.698242H-48.3395C-48.3393 166.155 13.7271 228.221 90.29 228.221V179.184ZM0.698242 89.592H49.736C49.736 67.194 67.893 49.0377 90.29 49.0377V-1.90735e-05V-49.0377C13.7272 -49.0377 -48.3395 13.0289 -48.3395 89.592H0.698242ZM90.29 -1.90735e-05V49.0377C96.251 49.0377 101.788 50.2932 106.758 52.5076L126.716 7.71518L146.674 -37.0772C129.386 -44.7804 110.27 -49.0377 90.29 -49.0377V-1.90735e-05ZM164.198 7.71518L184.156 52.5077C189.126 50.2933 194.663 49.0377 200.624 49.0377V-1.90735e-05V-49.0377C180.644 -49.0376 161.528 -44.7804 144.24 -37.0772L164.198 7.71518ZM126.716 7.71518L106.758 52.5076C131.227 63.411 159.687 63.411 184.156 52.5077L164.198 7.71518L144.24 -37.0772C144.894 -37.3687 145.295 -37.3905 145.457 -37.3905C145.619 -37.3905 146.02 -37.3687 146.674 -37.0772L126.716 7.71518ZM164.198 171.467L184.158 126.676C159.688 115.771 131.226 115.771 106.756 126.676L126.716 171.467L146.676 216.259C146.021 216.551 145.62 216.573 145.457 216.573C145.294 216.573 144.893 216.551 144.238 216.259L164.198 171.467Z" fill="#181818"/>
</g>
</svg>
