<svg width="844" height="258" viewBox="0 0 844 258" fill="none" xmlns="http://www.w3.org/2000/svg">
<path d="M492.355 169.163V131.264C492.355 127.027 491.345 123.74 489.326 121.403C487.346 119.027 484.593 117.839 481.069 117.839C478.811 117.839 476.851 118.374 475.188 119.443C473.524 120.473 472.218 121.938 471.267 123.839C470.356 125.7 469.901 127.858 469.901 130.314L463.129 125.799C463.129 121.403 464.158 117.522 466.218 114.156C468.317 110.79 471.109 108.176 474.594 106.315C478.118 104.414 482.019 103.463 486.296 103.463C493.623 103.463 499.147 105.642 502.87 109.998C506.632 114.314 508.513 119.978 508.513 126.987V169.163H492.355ZM415.012 169.163V105.008H429.269V126.274H431.289V169.163H415.012ZM453.743 169.163V131.264C453.743 127.027 452.733 123.74 450.714 121.403C448.733 119.027 445.981 117.839 442.457 117.839C439.09 117.839 436.378 119.007 434.318 121.344C432.299 123.641 431.289 126.631 431.289 130.314L424.517 125.561C424.517 121.364 425.566 117.601 427.665 114.275C429.764 110.948 432.576 108.315 436.1 106.374C439.665 104.434 443.645 103.463 448.04 103.463C453.07 103.463 457.189 104.533 460.396 106.671C463.644 108.81 466.04 111.661 467.584 115.225C469.129 118.79 469.901 122.71 469.901 126.987V169.163H453.743Z" fill="#181818"/>
<path d="M544.239 169.321C537.665 169.321 531.864 167.915 526.834 165.103C521.844 162.252 517.924 158.351 515.072 153.401C512.26 148.411 510.855 142.708 510.855 136.293C510.855 129.283 512.241 123.184 515.013 117.996C517.785 112.809 521.607 108.789 526.478 105.938C531.349 103.047 536.952 101.601 543.289 101.601C550.021 101.601 555.744 103.185 560.456 106.353C565.169 109.522 568.654 113.977 570.911 119.719C573.169 125.461 573.961 132.214 573.287 139.976H557.308V134.035C557.308 127.501 556.258 122.808 554.16 119.957C552.1 117.066 548.714 115.62 544.002 115.62C538.497 115.62 534.438 117.303 531.824 120.67C529.25 123.996 527.963 128.927 527.963 135.461C527.963 141.441 529.25 146.074 531.824 149.361C534.438 152.609 538.259 154.232 543.289 154.232C546.457 154.232 549.17 153.539 551.427 152.153C553.684 150.767 555.407 148.767 556.595 146.154L572.753 150.787C570.337 156.648 566.515 161.202 561.288 164.45C556.1 167.697 550.417 169.321 544.239 169.321ZM522.973 139.976V127.976H565.506V139.976H522.973Z" fill="#181818"/>
<path d="M619.958 169.144V138.849C619.958 137.383 619.879 135.522 619.72 133.265C619.562 130.968 619.067 128.671 618.235 126.374C617.404 124.077 616.037 122.156 614.136 120.612C612.275 119.067 609.622 118.295 606.176 118.295C604.79 118.295 603.305 118.513 601.721 118.949C600.137 119.384 598.652 120.236 597.266 121.503C595.88 122.731 594.731 124.552 593.821 126.968C592.949 129.384 592.514 132.592 592.514 136.591L583.247 132.196C583.247 127.126 584.276 122.374 586.336 117.939C588.395 113.503 591.484 109.919 595.603 107.187C599.761 104.454 604.988 103.088 611.285 103.088C616.315 103.088 620.413 103.939 623.582 105.642C626.75 107.345 629.205 109.503 630.948 112.117C632.73 114.731 633.997 117.464 634.749 120.315C635.502 123.127 635.957 125.701 636.116 128.037C636.274 130.374 636.353 132.077 636.353 133.146V169.144H619.958ZM576.118 169.144V104.989H590.494V126.255H592.514V169.144H576.118Z" fill="#181818"/>
<path d="M682.396 168.114C677.96 168.945 673.604 169.302 669.327 169.183C665.09 169.104 661.288 168.371 657.922 166.985C654.595 165.559 652.061 163.282 650.318 160.154C648.734 157.223 647.902 154.253 647.823 151.243C647.744 148.194 647.704 144.748 647.704 140.907V85.8135H663.862V139.956C663.862 142.451 663.882 144.709 663.921 146.728C664.001 148.709 664.417 150.293 665.169 151.481C666.595 153.738 668.872 154.966 672 155.164C675.129 155.362 678.594 155.203 682.396 154.688V168.114ZM639.095 116.433V103.958H682.396V116.433H639.095Z" fill="#181818"/>
<path d="M713.399 169.321C705.32 169.321 698.786 167.499 693.796 163.856C688.846 160.173 685.836 154.985 684.767 148.292L701.281 145.797C701.954 148.807 703.439 151.163 705.736 152.866C708.073 154.569 711.023 155.421 714.587 155.421C717.518 155.421 719.775 154.866 721.359 153.757C722.943 152.609 723.735 151.025 723.735 149.005C723.735 147.738 723.419 146.728 722.785 145.975C722.151 145.183 720.726 144.411 718.508 143.659C716.33 142.906 712.924 141.916 708.291 140.689C703.063 139.342 698.885 137.837 695.756 136.174C692.628 134.511 690.371 132.53 688.984 130.234C687.598 127.897 686.905 125.085 686.905 121.798C686.905 117.68 687.955 114.115 690.054 111.106C692.153 108.056 695.103 105.72 698.905 104.096C702.746 102.433 707.261 101.601 712.449 101.601C717.478 101.601 721.933 102.373 725.815 103.918C729.696 105.462 732.824 107.66 735.2 110.512C737.616 113.363 739.101 116.729 739.655 120.61L723.141 123.58C722.864 121.204 721.834 119.323 720.052 117.937C718.27 116.551 715.855 115.739 712.805 115.502C709.835 115.304 707.439 115.7 705.617 116.69C703.835 117.68 702.944 119.105 702.944 120.967C702.944 122.075 703.32 123.006 704.073 123.759C704.865 124.511 706.469 125.283 708.885 126.075C711.34 126.867 715.063 127.897 720.052 129.164C724.923 130.432 728.824 131.917 731.755 133.62C734.725 135.283 736.883 137.303 738.23 139.679C739.576 142.015 740.25 144.847 740.25 148.173C740.25 154.747 737.873 159.915 733.121 163.678C728.369 167.44 721.795 169.321 713.399 169.321Z" fill="#181818"/>
<path d="M742.848 169.183V153.025H759.006V169.183H742.848Z" fill="#181818"/>
<mask id="path-2-inside-1_30_775" fill="white">
<path d="M285.734 37.7285C335.579 37.7286 375.986 78.1357 375.986 127.98C375.986 177.825 335.579 218.233 285.734 218.233C272.668 218.233 260.251 215.456 249.039 210.46C237.187 205.179 223.134 205.179 211.281 210.46C200.07 215.456 187.652 218.233 174.586 218.233C124.741 218.233 84.334 177.825 84.334 127.98C84.3341 78.1358 124.741 37.7287 174.586 37.7285C187.652 37.7285 200.07 40.5051 211.281 45.5005C223.134 50.7816 237.187 50.7816 249.039 45.5004C260.251 40.5051 272.668 37.7285 285.734 37.7285Z"/>
</mask>
<path d="M285.734 37.7285L285.734 -11.6708H285.734V37.7285ZM375.986 127.98L425.386 127.98L425.386 127.98L375.986 127.98ZM285.734 218.233L285.734 267.633L285.734 267.633L285.734 218.233ZM174.586 218.233L174.586 267.633H174.586V218.233ZM84.334 127.98L34.9347 127.98V127.98H84.334ZM174.586 37.7285L174.586 -11.6708L174.586 -11.6708L174.586 37.7285ZM211.281 45.5005L231.386 0.377557L211.281 45.5005ZM211.281 210.46L191.174 165.338L211.281 210.46ZM285.734 37.7285L285.734 87.1278C308.297 87.1278 326.587 105.418 326.587 127.981L375.986 127.98L425.386 127.98C425.385 50.8532 362.862 -11.6707 285.734 -11.6708L285.734 37.7285ZM375.986 127.98H326.587C326.587 150.543 308.296 168.834 285.734 168.834L285.734 218.233L285.734 267.633C362.862 267.633 425.386 205.107 425.386 127.98H375.986ZM285.734 218.233V168.834C279.73 168.834 274.153 167.569 269.146 165.338L249.039 210.46L228.932 255.582C246.348 263.343 265.606 267.633 285.734 267.633V218.233ZM211.281 210.46L191.174 165.338C186.167 167.569 180.59 168.834 174.586 168.834V218.233V267.633C194.715 267.633 213.972 263.343 231.388 255.582L211.281 210.46ZM174.586 218.233L174.586 168.834C152.024 168.834 133.733 150.543 133.733 127.98H84.334H34.9347C34.9347 205.107 97.4582 267.632 174.586 267.633L174.586 218.233ZM84.334 127.98L133.733 127.981C133.733 105.418 152.024 87.1279 174.586 87.1278L174.586 37.7285L174.586 -11.6708C97.4588 -11.6705 34.9349 50.8532 34.9347 127.98L84.334 127.98ZM174.586 37.7285V87.1278C180.591 87.1278 186.169 88.3926 191.176 90.6234L211.281 45.5005L231.386 0.377557C213.97 -7.38237 194.713 -11.6708 174.586 -11.6708V37.7285ZM249.039 45.5004L269.144 90.6233C274.151 88.3926 279.729 87.1278 285.734 87.1278V37.7285V-11.6708C265.608 -11.6708 246.35 -7.38242 228.934 0.377541L249.039 45.5004ZM211.281 45.5005L191.176 90.6234C215.826 101.606 244.495 101.606 269.144 90.6233L249.039 45.5004L228.934 0.377541C229.593 0.0839182 229.997 0.0620221 230.16 0.062022C230.323 0.0620219 230.727 0.0839178 231.386 0.377557L211.281 45.5005ZM249.039 210.46L269.146 165.338C244.496 154.354 215.825 154.354 191.174 165.338L211.281 210.46L231.388 255.582C230.728 255.876 230.324 255.898 230.16 255.898C229.996 255.898 229.592 255.876 228.932 255.582L249.039 210.46Z" fill="#181818" mask="url(#path-2-inside-1_30_775)"/>
</svg>
