<svg width="844" height="258" viewBox="0 0 844 258" fill="none" xmlns="http://www.w3.org/2000/svg">
<path d="M492.353 169.163V131.264C492.353 127.027 491.343 123.74 489.324 121.403C487.344 119.027 484.591 117.839 481.067 117.839C478.809 117.839 476.849 118.374 475.186 119.443C473.522 120.473 472.216 121.938 471.265 123.839C470.354 125.7 469.899 127.858 469.899 130.314L463.127 125.799C463.127 121.403 464.157 117.522 466.216 114.156C468.315 110.79 471.107 108.176 474.592 106.315C478.116 104.414 482.017 103.463 486.294 103.463C493.621 103.463 499.145 105.642 502.868 109.998C506.63 114.314 508.511 119.978 508.511 126.987V169.163H492.353ZM415.01 169.163V105.008H429.267V126.274H431.287V169.163H415.01ZM453.741 169.163V131.264C453.741 127.027 452.731 123.74 450.712 121.403C448.731 119.027 445.979 117.839 442.455 117.839C439.088 117.839 436.376 119.007 434.316 121.344C432.297 123.641 431.287 126.631 431.287 130.314L424.515 125.561C424.515 121.364 425.564 117.601 427.663 114.275C429.762 110.948 432.574 108.315 436.098 106.374C439.663 104.434 443.643 103.463 448.038 103.463C453.068 103.463 457.187 104.533 460.394 106.671C463.642 108.81 466.038 111.661 467.582 115.225C469.127 118.79 469.899 122.71 469.899 126.987V169.163H453.741Z" fill="#00FFA2"/>
<path d="M544.237 169.321C537.663 169.321 531.862 167.915 526.832 165.103C521.842 162.252 517.922 158.351 515.07 153.401C512.259 148.411 510.853 142.708 510.853 136.293C510.853 129.283 512.239 123.184 515.011 117.996C517.783 112.809 521.605 108.789 526.476 105.938C531.347 103.047 536.95 101.601 543.287 101.601C550.019 101.601 555.742 103.185 560.454 106.353C565.167 109.522 568.652 113.977 570.909 119.719C573.167 125.461 573.959 132.214 573.285 139.976H557.306V134.035C557.306 127.501 556.257 122.808 554.158 119.957C552.098 117.066 548.712 115.62 544 115.62C538.495 115.62 534.436 117.303 531.822 120.67C529.248 123.996 527.961 128.927 527.961 135.461C527.961 141.441 529.248 146.074 531.822 149.361C534.436 152.609 538.257 154.232 543.287 154.232C546.455 154.232 549.168 153.539 551.425 152.153C553.682 150.767 555.405 148.767 556.593 146.154L572.751 150.787C570.335 156.648 566.513 161.202 561.286 164.45C556.098 167.697 550.415 169.321 544.237 169.321ZM522.971 139.976V127.976H565.504V139.976H522.971Z" fill="#00FFA2"/>
<path d="M619.956 169.144V138.849C619.956 137.383 619.877 135.522 619.718 133.265C619.56 130.968 619.065 128.671 618.233 126.374C617.402 124.077 616.035 122.156 614.135 120.612C612.273 119.067 609.62 118.295 606.174 118.295C604.788 118.295 603.303 118.513 601.719 118.949C600.135 119.384 598.65 120.236 597.264 121.503C595.878 122.731 594.729 124.552 593.819 126.968C592.947 129.384 592.512 132.592 592.512 136.591L583.245 132.196C583.245 127.126 584.274 122.374 586.334 117.939C588.393 113.503 591.482 109.919 595.601 107.187C599.759 104.454 604.986 103.088 611.283 103.088C616.313 103.088 620.411 103.939 623.58 105.642C626.748 107.345 629.203 109.503 630.946 112.117C632.728 114.731 633.995 117.464 634.747 120.315C635.5 123.127 635.955 125.701 636.114 128.037C636.272 130.374 636.351 132.077 636.351 133.146V169.144H619.956ZM576.116 169.144V104.989H590.492V126.255H592.512V169.144H576.116Z" fill="#00FFA2"/>
<path d="M682.394 168.114C677.958 168.945 673.602 169.302 669.325 169.183C665.088 169.104 661.286 168.371 657.92 166.985C654.593 165.559 652.059 163.282 650.316 160.154C648.732 157.223 647.9 154.253 647.821 151.243C647.742 148.194 647.702 144.748 647.702 140.907V85.8135H663.86V139.956C663.86 142.451 663.88 144.709 663.92 146.728C663.999 148.709 664.415 150.293 665.167 151.481C666.593 153.738 668.87 154.966 671.998 155.164C675.127 155.362 678.592 155.203 682.394 154.688V168.114ZM639.093 116.433V103.958H682.394V116.433H639.093Z" fill="#00FFA2"/>
<path d="M713.397 169.321C705.318 169.321 698.784 167.499 693.794 163.856C688.844 160.173 685.834 154.985 684.765 148.292L701.279 145.797C701.952 148.807 703.437 151.163 705.734 152.866C708.071 154.569 711.021 155.421 714.585 155.421C717.516 155.421 719.773 154.866 721.357 153.757C722.941 152.609 723.733 151.025 723.733 149.005C723.733 147.738 723.417 146.728 722.783 145.975C722.149 145.183 720.724 144.411 718.506 143.659C716.328 142.906 712.922 141.916 708.289 140.689C703.061 139.342 698.883 137.837 695.755 136.174C692.626 134.511 690.369 132.53 688.983 130.234C687.596 127.897 686.903 125.085 686.903 121.798C686.903 117.68 687.953 114.115 690.052 111.106C692.151 108.056 695.101 105.72 698.903 104.096C702.744 102.433 707.259 101.601 712.447 101.601C717.476 101.601 721.932 102.373 725.813 103.918C729.694 105.462 732.822 107.66 735.198 110.512C737.614 113.363 739.099 116.729 739.654 120.61L723.139 123.58C722.862 121.204 721.833 119.323 720.05 117.937C718.268 116.551 715.853 115.739 712.803 115.502C709.833 115.304 707.437 115.7 705.615 116.69C703.833 117.68 702.942 119.105 702.942 120.967C702.942 122.075 703.319 123.006 704.071 123.759C704.863 124.511 706.467 125.283 708.883 126.075C711.338 126.867 715.061 127.897 720.05 129.164C724.922 130.432 728.822 131.917 731.753 133.62C734.723 135.283 736.881 137.303 738.228 139.679C739.574 142.015 740.248 144.847 740.248 148.173C740.248 154.747 737.871 159.915 733.119 163.678C728.367 167.44 721.793 169.321 713.397 169.321Z" fill="#00FFA2"/>
<path d="M742.846 169.183V153.025H759.004V169.183H742.846Z" fill="#00FFA2"/>
<mask id="path-2-inside-1_30_795" fill="white">
<path d="M285.737 37.7285C335.582 37.7285 375.99 78.1356 375.99 127.98C375.99 177.825 335.582 218.233 285.737 218.233C272.671 218.233 260.253 215.456 249.042 210.46C237.189 205.178 223.136 205.178 211.283 210.46C200.072 215.456 187.655 218.233 174.588 218.233C124.743 218.233 84.3354 177.825 84.3354 127.98C84.3356 78.1356 124.744 37.7285 174.588 37.7285C187.654 37.7286 200.072 40.5054 211.283 45.5008C223.136 50.7823 237.189 50.7823 249.042 45.5008C260.253 40.5054 272.671 37.7286 285.737 37.7285Z"/>
</mask>
<path d="M285.737 37.7285L285.737 -11.6708L285.737 -11.6708L285.737 37.7285ZM375.99 127.98L425.389 127.98L425.389 127.98L375.99 127.98ZM285.737 218.233L285.737 267.633H285.737V218.233ZM174.588 218.233L174.588 267.633L174.589 267.633L174.588 218.233ZM84.3354 127.98L34.9362 127.98V127.98H84.3354ZM174.588 37.7285L174.589 -11.6708H174.588V37.7285ZM211.283 45.5008L191.177 90.6234L211.283 45.5008ZM249.042 210.46L269.15 165.338L249.042 210.46ZM285.737 37.7285V87.1278C308.3 87.1278 326.59 105.419 326.59 127.981L375.99 127.98L425.389 127.98C425.389 50.8526 362.864 -11.6708 285.737 -11.6708V37.7285ZM375.99 127.98H326.59C326.59 150.543 308.299 168.834 285.737 168.834V218.233V267.633C362.864 267.633 425.389 205.108 425.389 127.98H375.99ZM285.737 218.233L285.737 168.834C279.734 168.834 274.157 167.569 269.15 165.338L249.042 210.46L228.934 255.582C246.35 263.343 265.608 267.633 285.737 267.633L285.737 218.233ZM211.283 210.46L191.175 165.338C186.169 167.569 180.592 168.834 174.588 168.834L174.588 218.233L174.589 267.633C194.718 267.633 213.975 263.343 231.391 255.582L211.283 210.46ZM174.588 218.233V168.834C152.026 168.834 133.735 150.543 133.735 127.98H84.3354H34.9362C34.9362 205.108 97.461 267.633 174.588 267.633V218.233ZM84.3354 127.98L133.735 127.981C133.735 105.419 152.025 87.1278 174.588 87.1278V37.7285V-11.6708C97.4616 -11.6708 34.9363 50.8526 34.9362 127.98L84.3354 127.98ZM174.588 37.7285L174.588 87.1278C180.593 87.1278 186.171 88.3926 191.177 90.6234L211.283 45.5008L231.389 0.378265C213.973 -7.38194 194.716 -11.6707 174.589 -11.6708L174.588 37.7285ZM249.042 45.5008L269.148 90.6234C274.154 88.3926 279.732 87.1278 285.737 87.1278L285.737 37.7285L285.737 -11.6708C265.609 -11.6707 246.352 -7.38194 228.936 0.378263L249.042 45.5008ZM211.283 45.5008L191.177 90.6234C215.828 101.607 244.498 101.607 269.148 90.6234L249.042 45.5008L228.936 0.378263C229.595 0.0845634 229.999 0.0626341 230.163 0.0626341C230.326 0.0626341 230.73 0.0845635 231.389 0.378265L211.283 45.5008ZM249.042 210.46L269.15 165.338C244.499 154.353 215.827 154.353 191.175 165.338L211.283 210.46L231.391 255.582C230.731 255.876 230.327 255.898 230.163 255.898C229.999 255.898 229.594 255.876 228.934 255.582L249.042 210.46Z" fill="#00FFA2" mask="url(#path-2-inside-1_30_795)"/>
</svg>
