<svg width="304" height="188" viewBox="0 0 304 188" fill="none" xmlns="http://www.w3.org/2000/svg">
<g clip-path="url(#clip0_8_343)">
<mask id="mask0_8_343" style="mask-type:luminance" maskUnits="userSpaceOnUse" x="0" y="0" width="304" height="188">
<path d="M209.765 0C261.679 0.000214411 303.765 42.0854 303.765 94C303.765 145.915 261.679 188 209.765 188C196.156 188 183.222 185.108 171.545 179.905C159.2 174.404 144.563 174.404 132.218 179.905C120.542 185.108 107.609 188 94 188C42.0852 188 0 145.915 0 94C8.24658e-05 42.0853 42.0853 8.24758e-05 94 0C107.609 0 120.542 2.89199 132.219 8.0948C144.564 13.5954 159.2 13.5953 171.545 8.09483C183.222 2.89195 196.156 0 209.765 0Z" fill="white"/>
</mask>
<g mask="url(#mask0_8_343)">
<path d="M209.765 1.52588e-05L209.764 51.4507C233.264 51.4508 252.314 70.5009 252.314 94.0001L303.765 94H355.215C355.215 13.6699 290.095 -51.4504 209.765 -51.4507V1.52588e-05ZM303.765 94L252.314 94.0001C252.314 117.499 233.264 136.549 209.764 136.549L209.765 188V239.451C290.095 239.45 355.215 174.33 355.215 94H303.765ZM209.765 188L209.764 136.549C203.509 136.549 197.701 135.232 192.486 132.908L171.545 179.905L150.604 226.901C168.744 234.984 188.801 239.451 209.765 239.451V188ZM132.218 179.905L111.277 132.909C106.063 135.232 100.254 136.549 94 136.549V188L93.9999 239.451C114.964 239.451 135.021 234.984 153.16 226.901L132.218 179.905ZM94 188V136.549C70.5005 136.549 51.4507 117.499 51.4507 94H1.52588e-05L-51.4507 93.9999C-51.4507 174.33 13.6698 239.451 93.9999 239.451L94 188ZM1.52588e-05 94H51.4507C51.4507 70.5006 70.5007 51.4507 94.0001 51.4507L94 1.52588e-05V-51.4507C13.6699 -51.4506 -51.4506 13.6698 -51.4507 93.9999L1.52588e-05 94ZM94 1.52588e-05L94.0001 51.4507C100.254 51.4507 106.064 52.768 111.278 55.0914L132.219 8.09481L153.159 -38.9018C135.02 -46.984 114.963 -51.4507 94 -51.4507V1.52588e-05ZM171.545 8.09484L192.485 55.0915C197.7 52.7681 203.509 51.4507 209.764 51.4507L209.765 1.52588e-05V-51.4507C188.802 -51.4507 168.745 -46.9842 150.605 -38.9019L171.545 8.09484ZM132.219 8.09481L111.278 55.0914C136.952 66.5308 166.812 66.5307 192.485 55.0915L171.545 8.09484L150.605 -38.9019C151.291 -39.2077 151.712 -39.2305 151.882 -39.2305C152.052 -39.2305 152.472 -39.2077 153.159 -38.9018L132.219 8.09481ZM171.545 179.905L192.486 132.908C166.812 121.468 136.951 121.468 111.277 132.909L132.218 179.905L153.16 226.901C152.473 227.207 152.052 227.23 151.882 227.23C151.712 227.23 151.291 227.207 150.604 226.901L171.545 179.905Z" fill="#00FFA2"/>
</g>
</g>
<defs>
<clipPath id="clip0_8_343">
<rect width="304" height="188" fill="white"/>
</clipPath>
</defs>
</svg>
